<svg width="63" height="67" viewBox="0 0 63 67" fill="none" xmlns="http://www.w3.org/2000/svg">
<path d="M0.191125 59.412C-0.133608 59.8587 -0.0347098 60.4841 0.41202 60.8089L7.6919 66.1007C8.13863 66.4254 8.76402 66.3265 9.08875 65.8798C9.41348 65.4331 9.31459 64.8077 8.86786 64.4829L2.39686 59.7791L7.1007 53.3081C7.42543 52.8614 7.32653 52.236 6.8798 51.9112C6.43307 51.5865 5.80768 51.6854 5.48295 52.1321L0.191125 59.412ZM51.2664 1.67962C59.006 10.0334 61.1867 17.4075 59.9863 23.801C58.7757 30.2485 54.0784 35.9818 47.4463 40.9086C34.1812 50.7626 13.7324 56.9741 0.843804 59.0123L1.1562 60.9877C14.2145 58.9227 35.0157 52.6342 48.6389 42.5141C55.4509 37.4537 60.6073 31.3314 61.9519 24.17C63.3067 16.9546 60.744 8.96656 52.7336 0.320377L51.2664 1.67962Z" fill="#EB6300"/>
</svg>
