<svg width="120" height="100" id="Слой_1" data-name="Слой 1" xmlns="http://www.w3.org/2000/svg" viewBox="0 0 166.64 81"><title>Logo</title>
<path fill="white" d="M308.29,409.83a6,6,0,0,0-3.86,1.13c0-1.42.43-3,3.31-3.43,1.15-.19,2.74-.31,3.36-.38s.79-.38.74-.77-.29-2.18-.34-2.59-.17-.45-.53-.43a32,32,0,0,0-3.74.41c-3.36.45-7,2.33-7.37,8.62-.31,5,1.46,9.07,6.84,9.07s6.7-3.62,6.62-6.46A5,5,0,0,0,308.29,409.83Zm-1.87,7.92a2.12,2.12,0,0,1-2-2.21v-1.42a4.11,4.11,0,0,1,2.06-.65,2,2,0,0,1,2.06,2.21A2,2,0,0,1,306.42,417.75Z" transform="translate(-222.36 -356)"/>
<path fill="white" d="M369.82,409c-.19-.41-.34-.58-.77-.58h-3.74c-.43,0-.58.17-.77.58s-3.91,10.75-4.13,11.33,0,.84.43.84h3.53c.72,0,.84-.24,1.08-.86.12-.34.91-2.78,1.73-5.33.82,2.54,1.61,5,1.73,5.33.24.62.36.86,1.08.86h3.53c.41,0,.62-.31.43-.84S370,409.42,369.82,409Z" transform="translate(-222.36 -356)"/>
<path fill="white" d="M339.8,409.83a6,6,0,0,0-3.86,1.13c0-1.42.43-3,3.31-3.43,1.15-.19,2.74-.31,3.36-.38s.79-.38.74-.77-.29-2.18-.34-2.59-.17-.45-.53-.43a32,32,0,0,0-3.74.41c-3.36.45-7,2.33-7.37,8.62-.31,5,1.46,9.07,6.84,9.07s6.7-3.62,6.62-6.46A5,5,0,0,0,339.8,409.83Zm-1.87,7.92a2.12,2.12,0,0,1-2-2.21v-1.42a4.11,4.11,0,0,1,2.06-.65,2,2,0,0,1,2.06,2.21A2,2,0,0,1,337.93,417.75Z" transform="translate(-222.36 -356)"/>
<path fill="white" d="M359.74,408.42h-3.38c-.57,0-.67.17-.89.62-.07.14-1.75,6-1.75,6s-2-5.86-2.11-6c-.22-.46-.31-.62-.89-.62h-3.34c-.58,0-.7.34-.48.86.14.36,3.36,8.11,4.61,11.11-.31,1.51-3,1.42-3,1.42a.62.62,0,0,0-.58.65v3.1a.58.58,0,0,0,.58.62c1.39,0,5.38.31,7.49-5,.26-.67,4.06-11.47,4.23-11.93S360.3,408.42,359.74,408.42Z" transform="translate(-222.36 -356)"/>
<path fill="white" d="M388.3,408.39h-2.52c-.41,0-.6.07-.94.53l-3.46,4.82V409a.61.61,0,0,0-.6-.6h-3.53a.61.61,0,0,0-.6.6v11.57a.59.59,0,0,0,.6.6h2.64c.34,0,.48,0,.74-.43l3.53-4.92v4.75a.59.59,0,0,0,.6.6h3.53a.59.59,0,0,0,.6-.6V409A.61.61,0,0,0,388.3,408.39Z" transform="translate(-222.36 -356)"/>
<path fill="white" d="M316.45,386.54h3.12v8a.59.59,0,0,0,.6.6h3.53a.59.59,0,0,0,.6-.6v-8h3.12a.61.61,0,0,0,.6-.6v-3a.59.59,0,0,0-.6-.58h-11a.61.61,0,0,0-.6.58v3A.63.63,0,0,0,316.45,386.54Z" transform="translate(-222.36 -356)"/>
<path fill="white" d="M322.42,408.08a11.9,11.9,0,0,0-5.33,1.3.49.49,0,0,0-.22.65c.07.19.77,1.92.89,2.16a.45.45,0,0,0,.6.22,9.49,9.49,0,0,1,3.5-.82c1.56,0,1.82.89,1.85,1.61-1,0-2.69.12-3.89.29a4.28,4.28,0,0,0-3.84,4.37c0,3.22,3.1,3.6,3.84,3.6a5.63,5.63,0,0,0,3.89-1.37v.48a.59.59,0,0,0,.6.6h3.53a.59.59,0,0,0,.6-.6v-7.75a4.48,4.48,0,0,0,0-.57C328.09,409.28,325.26,408.08,322.42,408.08Zm1.3,8.9a1.48,1.48,0,0,1-1.63,1.25,1.24,1.24,0,0,1-.91-2.23,5,5,0,0,1,2.54-.48Z" transform="translate(-222.36 -356)"/>
<path fill="white" d="M306.75,382.08a6.69,6.69,0,1,0,6.94,6.67A6.84,6.84,0,0,0,306.75,382.08Zm0,9.41a2.74,2.74,0,1,1,2.64-2.74A2.68,2.68,0,0,1,306.75,391.49Z" transform="translate(-222.36 -356)"/>
<rect fill="white" x="115.64" y="31" width="51" height="4"/>
<path fill="white" d="M261,403.55c-4.48.13-3.69,2.67-3.51,2.76,1.48,1.54,2.33-.59,3.51-.5s2.22,1.76,3.51.75C264.69,406.5,265.57,403.84,261,403.55Z" transform="translate(-222.36 -356)"/>
<path fill="white" d="M269.34,372.79A15,15,0,0,0,254.87,356v0a15,15,0,0,0-15.44,16.62,32,32,0,0,0-4.52,53.67,22.81,22.81,0,0,0,38.65,0,32,32,0,0,0-4.21-53.51Zm-3.41-1.58a31.57,31.57,0,0,0-4.79-1.47c-.15-1.79-.9-6.87-4.49-10A11.54,11.54,0,0,1,265.93,371.21Zm-16.06-10.76c2.45,0,6.59,1.13,7.63,8.7a32.17,32.17,0,0,0-3.27-.17c-1,0-1.95.05-2.9.14-.28-1.3-1.52-5.86-5.26-6.05A11.58,11.58,0,0,1,249.87,360.45Zm-6.18,6.27c1.1-.73,3-1.23,4.26,2.88a31.56,31.56,0,0,0-5.11,1.48v0A11.51,11.51,0,0,1,243.69,366.72Zm4.43,6.45c-1.88,9.05-11.23,9.35-18.49,13.6A28.39,28.39,0,0,1,248.13,373.17Zm-21.89,23.2,0-.09a10.13,10.13,0,0,1,.25-1.16,6.07,6.07,0,0,1,.47-1.44c3.64-7.74,22.94-5.77,24.7-21.05.85-.08,1.7-.12,2.56-.12a28.47,28.47,0,0,1,3.91.28c-3.42,19.17-23.33,16.55-32.16,25.63Q226.08,397.37,226.24,396.37Zm2.91,17.79a8.73,8.73,0,0,1,2.24-5.27v5.21a23,23,0,0,0,.38,4.14A28.47,28.47,0,0,1,229.15,414.15Zm-2-5.4,0,.07,0,.07a24.39,24.39,0,0,1-.87-3.52c2-13.78,30.27-6.69,35.29-31.92a28.13,28.13,0,0,1,4.45,1.6C263.73,398.59,235,396.36,227.17,408.75Zm46.39,5.35a19.32,19.32,0,0,1-38.65,0V406c7.37-4.57,20.08-6.92,27.92-15.47,1.12,5.5,6.14,7.88,10.72,9.93Zm3.13,4.15h0a23,23,0,0,0,.38-4.13v-12c2.73,1.4,4.73,3,4.69,5.64A28.32,28.32,0,0,1,276.69,418.25Zm5.9-17.34c0,.22,0,.43,0,.64-5.12-4.44-18.31-5.4-16.81-14.87a24.6,24.6,0,0,0,1.35-2.57c3.39,8.9,14.23,7.11,15.38,14.59C282.55,399.43,282.59,400.17,282.59,400.91Zm-13.26-24a28.49,28.49,0,0,1,11.41,13.95C275.8,388,267.83,385.37,269.33,376.87Z" transform="translate(-222.36 -356)"/>
<path fill="white" d="M261,408.09a1.76,1.76,0,0,0-.38,0,1.79,1.79,0,0,0-1.37,1.76v2.92a1.79,1.79,0,0,0,1.37,1.76,1.76,1.76,0,0,0,2.15-1.72v-3A1.76,1.76,0,0,0,261,408.09Z" transform="translate(-222.36 -356)"/>
<path fill="white" d="M247.46,403.55c-4.48.13-3.69,2.67-3.51,2.76,1.48,1.54,2.33-.59,3.51-.5s2.22,1.76,3.51.75C251.14,406.5,252,403.84,247.46,403.55Z" transform="translate(-222.36 -356)"/>
<path fill="white" d="M247.45,408.09a1.76,1.76,0,0,0-.38,0,1.79,1.79,0,0,0-1.37,1.76v2.92a1.79,1.79,0,0,0,1.37,1.76,1.76,1.76,0,0,0,2.15-1.72v-3A1.76,1.76,0,0,0,247.45,408.09Z" transform="translate(-222.36 -356)"/>
<path fill="white" d="M254.73,426.18c-1.32.19-2-2-3.76-.25-1,3.61,3.76,3.76,3.76,3.76s5.45-.78,3.51-3.76C257.24,424.42,255.67,426.2,254.73,426.18Z" transform="translate(-222.36 -356)"/></svg>