<svg width="97" height="125" viewBox="0 0 97 125" fill="none" xmlns="http://www.w3.org/2000/svg">
<path fill-rule="evenodd" clip-rule="evenodd" d="M119.794 -52.4804C139.703 -49.0371 161.769 -68.4249 178.715 -57.4319C195.484 -46.5532 193.816 -21.7082 197.486 -2.07916C201.019 16.8178 209.851 37.8869 199.576 54.1395C189.384 70.2631 164.258 65.7328 148.147 75.9672C131.043 86.8331 123.857 116.112 103.607 115.105C83.6033 114.11 79.6423 84.4935 64.167 71.7922C47.6936 58.2717 19.6297 58.6041 11.0278 39.1204C2.32532 19.409 14.5058 -2.83323 22.3653 -22.8903C30.5343 -43.7372 35.6571 -71.9506 57.1043 -78.4644C79.2896 -85.2023 96.9426 -56.4325 119.794 -52.4804Z" fill="#fff"/>
</svg>
