<svg width="124" height="166" viewBox="0 0 124 166" fill="none" xmlns="http://www.w3.org/2000/svg">
<path opacity="1" fill-rule="evenodd" clip-rule="evenodd" d="M220.235 112.717C226.992 135.759 208.306 158.507 194.344 178.048C179.536 198.775 163.772 229.364 138.366 227.305C110.741 225.066 107.6 179.751 82.0788 168.949C58.0583 158.782 18.8967 193.706 5.76873 171.183C-7.66369 148.138 35.9497 128.449 43.578 102.895C48.4447 86.5923 33.9143 68.6423 40.9971 53.1714C48.8226 36.0784 66.6347 27.01 82.7555 17.3206C105.334 3.74942 131.128 -28.7314 153.115 -14.2172C177.324 1.76493 149.129 44.4512 162.684 70.0849C174.119 91.7107 213.352 89.2453 220.235 112.717Z" fill="#fff"/>
</svg>
