<svg width="158" height="165" viewBox="0 0 158 165" fill="none" xmlns="http://www.w3.org/2000/svg">
<path opacity="1" fill-rule="evenodd" clip-rule="evenodd" d="M237.768 114.139C242.622 130.999 243.659 147.495 244.725 165.002C246.1 187.574 254.775 210.862 244.895 231.176C233.453 254.7 213.435 287.219 187.78 282.082C158.314 276.183 163.627 224.813 137.629 209.699C115.489 196.827 82.944 225.18 62.7639 209.401C43.3594 194.23 37.136 161.451 47.2063 139C57.3326 116.425 94.5376 122.606 110.259 103.517C128.196 81.7377 114.727 39.057 139.937 26.4059C163.378 14.6429 192.722 34.7734 212.285 52.3178C229.292 67.5689 231.448 92.1845 237.768 114.139Z" fill="#fff"/>
</svg>
