<svg width="566" height="49" viewBox="0 0 566 49" fill="none" xmlns="http://www.w3.org/2000/svg">
<path opacity="0.08" d="M27.1881 14.3747L2.32465 27.4607C-6.48463 32.0972 -12 41.2326 -12 51.1875C-12 65.9957 0.00432968 78 14.8124 78H542.478C562.925 78 579.5 61.2025 579.5 40.7558C579.5 9.65325 543.234 -7.81702 519.327 12.0792C508.698 20.9252 493.999 23.0451 481.304 17.5631L451.987 4.90359C441.634 0.432892 430.074 -0.40657 419.183 2.52153L338.969 24.0884C333.041 25.6825 326.869 26.171 320.763 25.5296L208.2 13.7038C203.753 13.2367 199.264 13.3681 194.853 14.0943L130.639 24.6661C123.305 25.8735 115.795 25.4306 108.653 23.3697L64.3391 10.5811C51.9303 7.00001 38.617 8.35946 27.1881 14.3747Z" fill="#EB6300"/>
</svg>
