<svg width="48" height="48" viewBox="0 0 48 48" fill="none" xmlns="http://www.w3.org/2000/svg">
<path fill-rule="evenodd" clip-rule="evenodd" d="M2.68045 35C0.968425 31.7013 0 27.9597 0 24C0 10.7737 10.802 0 24 0C37.2142 0 48 10.7851 48 24C48 37.2142 37.2142 47.9998 23.9996 48H23.9984C16.4506 47.9995 9.69558 44.4804 5.2902 39H9.05148C12.3662 42.3029 16.7657 44.5179 21.6623 45.0578C20.4322 42.5442 19.7812 39.7117 19.7812 36.8542C19.7812 36.1952 19.5246 35.5757 19.0585 35.1097L17.3806 33.4317C16.8314 32.8825 16.8314 31.9922 17.3806 31.443L18.2188 30.6048C18.971 29.8525 19.1568 28.7079 18.681 27.7565L17.2841 24.9627L11.2079 20.912C9.40988 19.7133 8.79825 17.3233 9.81562 15.471C10.0498 15.0446 10.0732 14.5462 9.87984 14.1035C9.68625 13.6601 9.30609 13.3386 8.83706 13.2213L6.1665 12.5709C4.04456 15.8705 2.8125 19.794 2.8125 24C2.8125 28.0253 3.94089 31.7918 5.89794 35H2.68045ZM20.6504 25.4062L21.1967 26.4988C22.1816 28.4686 21.8415 30.8255 20.3605 32.4343L21.0473 33.1211C22.0446 34.1183 22.5938 35.4442 22.5938 36.8544C22.5938 39.0181 23.0548 41.2415 23.9014 43.2012C25.2397 40.5637 27.1807 38.0025 29.7764 35.4397C30.5857 34.6406 31.0312 33.5745 31.0312 32.4375V31.0312H29.9571C27.4813 31.0312 25.2557 29.6557 24.1485 27.4414C23.5208 26.1861 22.2591 25.4062 20.8555 25.4062H20.6504ZM31.7524 37.441C29.1722 39.9887 27.3139 42.5053 26.1149 45.0822C34.4066 44.2567 41.3054 38.6296 43.9867 31.0303H42.6132C41.1404 31.0303 39.7989 30.2833 39.0246 29.0304C38.2503 27.7777 38.1813 26.2433 38.8399 24.9259L39.3203 23.9649C39.4174 23.7707 39.4688 23.5532 39.4688 23.3361V21.1875C39.4688 20.4121 38.8379 19.7812 38.0625 19.7812C35.7363 19.7812 33.8438 17.8887 33.8438 15.5625V13.915C33.8438 12.7882 34.2826 11.7287 35.0794 10.9319L36.5987 9.41259C36.7522 9.25903 36.8697 9.069 36.9384 8.86284L37.3677 7.57481C34.9328 5.58937 32.0501 4.13372 28.8966 3.38475L29.6933 5.77397C30.6182 8.49113 28.5891 11.3438 25.6968 11.3438H24C23.2246 11.3438 22.5938 11.9746 22.5938 12.75V13.6981C22.5938 15.3428 21.7251 16.8511 20.381 17.5404C18.746 18.379 18.0588 20.223 18.8166 21.7385L19.2442 22.5938H20.8555C23.3312 22.5938 25.5569 23.9693 26.664 26.1836C27.2917 27.4389 28.5534 28.2188 29.957 28.2188H32.4375C33.2141 28.2188 33.8438 28.8484 33.8438 29.625V32.4375C33.8438 34.3326 33.1011 36.1095 31.7524 37.441ZM44.7651 28.2188C45.0417 26.855 45.1875 25.4442 45.1875 24C45.1875 18.4953 43.0768 13.4746 39.623 9.7035L39.6067 9.75234C39.4005 10.3706 39.0481 10.9408 38.5874 11.4014L37.0681 12.9206C36.8025 13.1861 36.6562 13.5393 36.6562 13.9149V15.5625C36.6562 16.3379 37.2871 16.9688 38.0625 16.9688C40.3887 16.9688 42.2812 18.8613 42.2812 21.1875V23.3361C42.2812 23.9875 42.1272 24.6399 41.8359 25.2227L41.3554 26.1836C41.039 26.8165 41.293 27.3513 41.417 27.5518C41.5409 27.7523 41.9056 28.2188 42.6132 28.2188H44.7651ZM25.7658 2.88666C25.1833 2.83838 24.5947 2.8125 24 2.8125C17.6199 2.8125 11.8897 5.64731 8.00203 10.1232L9.51094 10.4907C10.841 10.8232 11.9119 11.7289 12.4573 12.9777C13.0025 14.2259 12.9382 15.6281 12.281 16.8249C11.9603 17.4087 12.1744 18.1761 12.7681 18.572L15.6905 20.5202C15.6543 18.3129 16.9031 16.1633 19.0974 15.038C19.5065 14.8282 19.7812 14.2898 19.7812 13.698V12.7499C19.7812 10.4238 21.6738 8.53125 24 8.53125H25.6968C26.6614 8.53125 27.339 7.58531 27.028 6.67181L25.7658 2.88666Z" fill="#3AAE11"/>
</svg>
