<svg width="48" height="48" viewBox="0 0 48 48" fill="none" xmlns="http://www.w3.org/2000/svg">
<path d="M39.0413 22.0956V19.2831H36.4422C36.4422 17.1369 35.9895 15.1335 34.6846 13.3841C33.3125 11.5448 31.242 10.2789 28.974 9.91624V7.18933H26.1615V9.91624C23.8936 10.2789 21.8232 11.5448 20.451 13.3841C19.1462 15.1333 18.6935 17.137 18.6935 19.2831H16.0945V22.0956H39.0413ZM21.506 18.6787C21.506 15.3362 24.2254 12.6168 27.5679 12.6168C30.9104 12.6168 33.6297 15.3361 33.6297 18.6787V19.2831H21.506V18.6787Z" fill="#fff"/>
<path d="M16.0605 35.5378C16.0605 37.747 17.8514 39.5378 20.0605 39.5378H35.0751C37.2843 39.5378 39.0751 37.747 39.0751 35.5378V35.1242C39.0751 32.9151 37.2843 31.1242 35.0751 31.1242H20.0605C17.8514 31.1242 16.0605 32.9151 16.0605 35.1242V35.5378ZM18.873 35.331C18.873 34.561 19.4973 33.9367 20.2673 33.9367H34.8683C35.6384 33.9367 36.2626 34.561 36.2626 35.331C36.2626 36.1011 35.6384 36.7253 34.8683 36.7253H20.2673C19.4973 36.7253 18.873 36.1011 18.873 35.331Z" fill="#fff"/>
<path fill-rule="evenodd" clip-rule="evenodd" d="M35.3882 0H8C5.79086 0 4 1.79086 4 4V34H6.8125V4.86153C6.8125 3.75696 7.70793 2.86153 8.8125 2.86153H10.3064V45.1385H8.8125C7.70793 45.1385 6.8125 44.243 6.8125 43.1385V38H4V44C4 46.2091 5.79086 48 8 48H35.3882C40.4866 48 44.6344 43.8159 44.6344 38.7176V14H41.7963V38.7176C41.7963 42.2511 38.9218 45.1257 35.3882 45.1257H13.1444V2.87428H35.3882C38.9217 2.87428 41.7963 5.74894 41.7963 9.28238V10H44.6344V9.28238C44.6344 4.18406 40.4866 0 35.3882 0Z" fill="#fff"/>
</svg>
