<svg width="48" height="48" viewBox="0 0 48 48" fill="none" xmlns="http://www.w3.org/2000/svg">
<g clip-path="url(#clip0)">
<path fill-rule="evenodd" clip-rule="evenodd" d="M26.5875 12.8508C29.0839 11.2261 32.031 10.5955 34.9843 11.0719C41.606 12.1403 46.1504 18.5315 45.1145 25.3193C44.3771 30.1508 43.2992 34.3006 41.9102 37.6532C40.335 41.456 38.3452 44.2518 35.9965 45.9633C33.6223 47.6933 30.9019 48.3257 27.9115 47.8433C26.4161 47.6022 25.1058 47.0538 24.0001 46.2089C22.8944 47.0538 21.5843 47.6021 20.0887 47.8433C19.4406 47.9478 18.8049 48 18.183 48C15.9349 48.0002 13.8633 47.3185 12.0036 45.9633C9.94146 44.4606 8.1561 42.122 6.68497 39H9.88408C10.9995 41.0558 12.273 42.6183 13.6889 43.65C15.4481 44.9317 17.3922 45.3787 19.6326 45.0175C21.0057 44.796 22.0903 44.2366 22.9486 43.3074C23.2196 43.0142 23.6006 42.8475 23.9999 42.8475C24.3992 42.8475 24.7803 43.0142 25.0512 43.3074C25.9096 44.2366 26.9942 44.796 28.3673 45.0175C30.6077 45.3792 32.5519 44.9317 34.3109 43.65C38.0729 40.9088 40.8302 34.4208 42.285 24.8875C43.0848 19.6468 39.6052 14.7168 34.5282 13.8977H34.5281C32.0499 13.4977 29.5737 14.1265 27.5564 15.6679C25.4623 17.2679 22.5372 17.2679 20.4433 15.6679C18.8226 14.4295 16.9058 13.7802 14.9294 13.7802C14.4459 13.7802 13.9587 13.819 13.4715 13.8977C8.3948 14.7167 4.91509 19.6467 5.71487 24.8875C6.30929 28.7827 7.12114 32.1695 8.13012 35H5.10991C4.18485 32.19 3.43928 28.9468 2.88569 25.3193C1.84975 18.5315 6.39418 12.1403 13.0159 11.0718C14.5259 10.8281 16.0343 10.8745 17.4817 11.1946C17.2896 10.8388 17.1156 10.4657 16.9654 10.0746C15.2993 5.73433 17.2543 1.0654 17.3384 0.868623C17.4905 0.512842 17.7803 0.233749 18.1415 0.094999C18.5028 -0.0435633 18.9049 -0.0300633 19.2561 0.132593C19.4501 0.222499 24.0272 2.38399 25.6933 6.72424C25.8917 7.24117 26.0382 7.76261 26.1432 8.28067C28.9434 4.98958 32.4888 3.57987 32.7144 3.49268C33.452 3.20759 34.2804 3.57434 34.5653 4.31149C34.8503 5.04874 34.4838 5.87749 33.7465 6.16249C33.732 6.16821 31.9508 6.87639 30.0734 8.43039C28.4975 9.73492 27.3322 11.2147 26.5875 12.8508ZM23.0212 7.74995C22.274 5.80361 20.6682 4.40121 19.4833 3.58146C19.1522 4.98893 18.8952 7.1148 19.6378 9.04886C20.3849 10.9953 21.9908 12.3977 23.1755 13.2174C23.5066 11.8101 23.7637 9.68411 23.0212 7.74995Z" fill="#fff"/>
</g>
<defs>
<clipPath id="clip0">
<rect width="48" height="48" fill="white"/>
</clipPath>
</defs>
</svg>
