<svg width="48" height="48" viewBox="0 0 48 48" fill="none" xmlns="http://www.w3.org/2000/svg">
<g clip-path="url(#clip0)">
<path d="M37.5944 6.00128C35.165 6.00128 33.1885 7.97772 33.1885 10.4073C33.1885 12.8368 35.1649 14.8132 37.5944 14.8132C40.0239 14.8132 42.0003 12.8368 42.0003 10.4073C42.0003 7.97772 40.0239 6.00128 37.5944 6.00128ZM37.5944 12.0009C36.7157 12.0009 36.0008 11.2861 36.0008 10.4073C36.0008 9.52844 36.7156 8.81359 37.5944 8.81359C38.4732 8.81359 39.1881 9.52844 39.1881 10.4073C39.1881 11.2861 38.4732 12.0009 37.5944 12.0009Z" fill="#3AAE11"/>
<path fill-rule="evenodd" clip-rule="evenodd" d="M48 10.4055C48 4.66791 43.3321 0 37.5945 0C32.2692 0 27.8662 4.02141 27.2608 9.18684H14.6268C13.9634 6.17888 11.6108 3.77044 8.64249 3.28772C6.4687 2.93419 4.27102 3.53991 2.61352 4.94972C0.954799 6.36038 0.00351737 8.41725 0.00351737 10.593V12H2.81583V10.593H2.81574C2.81583 9.24347 3.40608 7.96734 4.43545 7.092C5.47889 6.20456 6.81295 5.83922 8.19099 6.06347C10.3639 6.417 12.0026 8.50219 12.0026 10.9139V34.7856C10.7393 33.7838 9.14283 33.1851 7.4092 33.1851C5.70717 33.1851 4.10217 33.7564 2.81583 34.7759V17H0.00351737V40.3499C-0.0352014 41.6107 0.245674 42.905 0.84933 44.1482C1.98445 46.4858 4.55939 47.9964 7.4093 47.9964H40.5944C44.6779 47.9964 48 44.6743 48 40.5908V10.593C48 10.5846 47.9995 10.5764 47.9989 10.5681C47.9985 10.5622 47.9981 10.5563 47.9979 10.5503L47.9988 10.4948C47.9994 10.465 48 10.4353 48 10.4055ZM14.815 11.9992H27.3119C27.4717 13.0342 27.786 14.0308 28.2379 14.9595C28.1137 15.0242 27.997 15.1085 27.8926 15.2127L14.815 28.2905V11.9992ZM7.4093 45.184C5.62899 45.1841 4.04724 44.2953 3.37917 42.9197C2.58849 41.2913 2.63705 39.5556 3.51221 38.1576C4.35914 36.8048 5.81592 35.9973 7.4092 35.9973C9.94205 35.9973 12.0026 38.0578 12.0026 40.5907C12.0026 41.3672 12.6322 41.9968 13.4087 41.9968C14.1853 41.9968 14.8149 41.3672 14.8149 40.5907V32.2675L22.5018 24.5806L29.5125 31.5913L15.9198 45.184H7.4093ZM40.5943 45.184H19.8971L31.5012 33.5799L42.6286 44.7074C42.015 45.0121 41.3246 45.184 40.5943 45.184ZM45.1877 40.5908C45.1877 41.3705 44.9918 42.1053 44.6475 42.7491L24.4905 22.5921L29.7924 17.2901C30.2885 17.8521 30.8477 18.3647 31.4659 18.8154L36.3253 29.0092C36.5585 29.4985 37.0524 29.8102 37.5945 29.8102C38.1367 29.8102 38.6306 29.4984 38.8638 29.0092L43.7232 18.8154C44.2561 18.4268 44.745 17.9921 45.1877 17.5197V34H48V39H45.1877V40.5908ZM41.8277 16.7103C41.619 16.8508 41.4517 17.0447 41.3435 17.2718L37.5945 25.1365L33.8454 17.2718C33.7372 17.0447 33.57 16.8508 33.3612 16.7103C31.2573 15.2943 30.0013 12.9374 30.0013 10.4055C30.0013 6.21853 33.4075 2.81231 37.5945 2.81231C41.7813 2.81231 45.1876 6.21853 45.1876 10.4055C45.1877 12.9374 43.9318 15.2943 41.8277 16.7103Z" fill="#3AAE11"/>
</g>
<defs>
<clipPath id="clip0">
<rect width="48" height="48" fill="white"/>
</clipPath>
</defs>
</svg>
