<svg width="19" height="18" viewBox="0 0 19 18" fill="none" xmlns="http://www.w3.org/2000/svg">
<path d="M11.3403 8.15702C13.6282 8.15702 15.4188 6.36646 15.4188 4.07851C15.4188 1.79057 13.6282 0 11.3403 0C9.05235 0 7.26178 1.79057 7.26178 4.07851C7.26178 6.36646 9.05235 8.2565 11.3403 8.15702ZM11.3403 1.49214C12.733 1.49214 13.9267 2.68585 13.9267 4.07851C13.9267 5.47117 12.733 6.66489 11.3403 6.66489C9.94763 6.66489 8.75392 5.47117 8.75392 4.07851C8.75392 2.68585 9.84815 1.49214 11.3403 1.49214Z" fill="#EB6300"/>
<path d="M11.3403 8.95288C7.16233 8.95288 3.78015 12.3351 3.78015 16.513C3.78015 16.911 4.07858 17.3089 4.57596 17.3089C4.97386 17.3089 5.37177 17.0104 5.37177 16.513C5.47124 13.2303 8.35604 10.644 11.6387 10.7434C14.822 10.8429 17.3089 13.4293 17.4083 16.513C17.4083 16.911 17.7068 17.3089 18.2042 17.3089C18.7015 17.3089 19 17.0104 19 16.513C18.801 12.3351 15.5183 8.95288 11.3403 8.95288Z" fill="#EB6300"/>
<path d="M4.77484 8.15719C5.17275 8.15719 5.57065 7.85877 5.57065 7.46086C5.57065 7.06296 5.27222 6.66506 4.77484 6.66506H3.48166V5.47134C3.48166 5.07344 3.18323 4.67554 2.68585 4.67554C2.28795 4.67554 1.89004 4.97396 1.89004 5.47134V6.66506H0.795807C0.397904 6.66506 0 6.96348 0 7.46086C0 7.95824 0.298428 8.15719 0.795807 8.15719H1.98952V9.3509C1.98952 9.74881 2.28795 10.1467 2.78533 10.1467C3.2827 10.1467 3.58113 9.84828 3.58113 9.3509V8.15719H4.77484Z" fill="#EB6300"/>
</svg>
