<svg width="18" height="19" viewBox="0 0 18 19" fill="none" xmlns="http://www.w3.org/2000/svg">
<path d="M17.4 4.23853H12.684C13.1809 3.77696 13.4977 3.15394 13.578 2.48053C13.6324 1.91968 13.4709 1.35918 13.1264 0.913251C12.782 0.467323 12.2804 0.169522 11.724 0.080531C11.3558 -0.0160007 10.9695 -0.0205214 10.5991 0.0673663C10.2287 0.155254 9.8856 0.332854 9.6 0.584531C9.34577 0.830813 9.14197 1.12428 9 1.44853C8.85804 1.12428 8.65424 0.830813 8.4 0.584531C8.11496 0.331818 7.77212 0.153114 7.40172 0.0641745C7.03131 -0.0247651 6.64471 -0.0212081 6.276 0.0745314C5.71958 0.163522 5.21804 0.461323 4.87356 0.907251C4.52908 1.35318 4.36759 1.91368 4.422 2.47453C4.50093 3.15008 4.81786 3.77544 5.316 4.23853H0.6C0.44087 4.23853 0.288258 4.30174 0.175736 4.41427C0.0632142 4.52679 0 4.6794 0 4.83853V9.03853C0 9.19766 0.0632142 9.35027 0.175736 9.4628C0.288258 9.57532 0.44087 9.63853 0.6 9.63853H1.8V16.2385C1.8 16.7159 1.98964 17.1738 2.32721 17.5113C2.66477 17.8489 3.12261 18.0385 3.6 18.0385H14.4C14.8774 18.0385 15.3352 17.8489 15.6728 17.5113C16.0104 17.1738 16.2 16.7159 16.2 16.2385V9.63853H17.4C17.5591 9.63853 17.7117 9.57532 17.8243 9.4628C17.9368 9.35027 18 9.19766 18 9.03853V4.83853C18 4.6794 17.9368 4.52679 17.8243 4.41427C17.7117 4.30174 17.5591 4.23853 17.4 4.23853ZM10.422 1.46653C10.5158 1.38416 10.6253 1.32152 10.7438 1.28235C10.8624 1.24318 10.9876 1.22827 11.112 1.23853C11.2388 1.24027 11.3652 1.25231 11.49 1.27453C11.6235 1.28939 11.7528 1.33063 11.8702 1.39587C11.9877 1.4611 12.091 1.54903 12.1742 1.65454C12.2574 1.76005 12.3188 1.88104 12.3548 2.01048C12.3908 2.13992 12.4007 2.27522 12.384 2.40853C12.306 3.22453 11.448 4.10653 9.762 4.26253C9.738 3.38053 9.828 2.01853 10.422 1.46653ZM6.51 1.23853C6.63482 1.21631 6.76123 1.20427 6.888 1.20253C7.0141 1.19548 7.14031 1.21419 7.25893 1.25752C7.37756 1.30084 7.48612 1.36788 7.578 1.45453C8.178 2.00653 8.262 3.36853 8.238 4.22653C6.552 4.07053 5.694 3.18853 5.616 2.37253C5.59928 2.23922 5.60921 2.10392 5.64523 1.97448C5.68125 1.84504 5.74263 1.72405 5.82581 1.61854C5.90899 1.51303 6.01231 1.4251 6.12977 1.35987C6.24722 1.29463 6.37647 1.25339 6.51 1.23853ZM1.2 5.43853H8.4V8.43853H1.2V5.43853ZM3 16.2385V9.63853H8.4V16.8385H3.6C3.44087 16.8385 3.28826 16.7753 3.17574 16.6628C3.06321 16.5503 3 16.3977 3 16.2385ZM15 16.2385C15 16.3977 14.9368 16.5503 14.8243 16.6628C14.7117 16.7753 14.5591 16.8385 14.4 16.8385H9.6V9.63853H15V16.2385ZM16.8 8.43853H9.6V5.43853H16.8V8.43853Z" fill="#EB6300"/>
</svg>
