<svg width="16" height="16" viewBox="0 0 16 16" fill="none" xmlns="http://www.w3.org/2000/svg">
<path fill-rule="evenodd" clip-rule="evenodd" d="M8 0C3.58474 0 0 3.58474 0 8C0 12.4153 3.58474 16 8 16C12.4153 16 16 12.4153 16 8C16 3.58474 12.4153 0 8 0ZM8 1.11628C11.7991 1.11628 14.8837 4.20093 14.8837 8C14.8837 11.7991 11.7991 14.8837 8 14.8837C4.20093 14.8837 1.11628 11.7991 1.11628 8C1.11628 4.20093 4.20093 1.11628 8 1.11628Z" fill="#EB6300"/>
<path fill-rule="evenodd" clip-rule="evenodd" d="M4.27906 8.55817H11.7209C12.029 8.55817 12.2791 8.30813 12.2791 8.00003C12.2791 7.69194 12.029 7.44189 11.7209 7.44189H4.27906C3.97096 7.44189 3.72092 7.69194 3.72092 8.00003C3.72092 8.30813 3.97096 8.55817 4.27906 8.55817Z" fill="#EB6300"/>
<path fill-rule="evenodd" clip-rule="evenodd" d="M8.55814 11.7209V4.27909C8.55814 3.97099 8.3081 3.72095 8 3.72095C7.69191 3.72095 7.44186 3.97099 7.44186 4.27909V11.7209C7.44186 12.029 7.69191 12.2791 8 12.2791C8.3081 12.2791 8.55814 12.029 8.55814 11.7209Z" fill="#EB6300"/>
</svg>
