<svg width="13" height="13" viewBox="0 0 13 13" fill="none" xmlns="http://www.w3.org/2000/svg">
<path d="M11.1366 0.159629C10.8922 0.162277 10.6489 0.246101 10.4579 0.437039L4.98375 5.91088L4.96889 5.92574C4.81663 6.07081 4.78801 6.17622 4.72614 6.32204C4.66175 6.47378 4.60239 6.65699 4.55275 6.86199C4.45346 7.27203 4.39452 7.77488 4.48339 8.28866C4.51688 8.47978 4.67867 8.64157 4.86981 8.67505C5.38362 8.76391 5.88651 8.70499 6.29656 8.6057C6.50159 8.55606 6.67985 8.49671 6.8316 8.43231C6.97733 8.37048 7.08296 8.33668 7.22792 8.18462C7.23391 8.17828 7.23664 8.17654 7.24278 8.16972L12.7219 2.69592C13.1584 2.2595 13.0447 1.56727 12.6328 1.15532C12.4214 0.943963 12.21 0.73261 11.9986 0.521252C11.7927 0.315273 11.5195 0.184023 11.2407 0.159629C11.2058 0.156585 11.1716 0.159312 11.1366 0.159629H11.1366ZM11.1317 1.11074C11.1283 1.1141 11.2093 1.07931 11.3249 1.19496C11.5361 1.40813 11.7501 1.61849 11.964 1.82902C12.0797 1.94471 12.0448 2.02559 12.0482 2.02222L11.7311 2.33926L10.8196 1.42282L11.1317 1.11074ZM10.1458 2.09653L11.0574 3.01296L6.57894 7.49111C6.58905 7.47589 6.53083 7.52553 6.46005 7.55551C6.36566 7.59557 6.23123 7.6412 6.07363 7.67936C5.86891 7.72891 5.63273 7.75165 5.39988 7.75366C5.40222 7.52198 5.42488 7.28854 5.4742 7.0849C5.51236 6.92732 5.56295 6.78796 5.603 6.69356C5.62573 6.63999 5.64583 6.60741 5.64759 6.59945L10.1458 2.09653ZM1.58529 2.37889C0.715264 2.37889 0 3.09411 0 3.96407V11.2559C0 12.1259 0.715265 12.8411 1.58529 12.8411H8.87761C9.74763 12.8411 10.4629 12.1259 10.4629 11.2559V6.65888C10.4664 6.40765 10.2386 6.17656 9.98731 6.17656C9.73603 6.17656 9.50817 6.40765 9.51172 6.65888V11.2559C9.51172 11.6154 9.23713 11.89 8.87761 11.89H1.58529C1.22576 11.89 0.951172 11.6154 0.951172 11.2559V3.96407C0.951172 3.60457 1.22576 3.33 1.58529 3.33H6.81673C7.06799 3.33355 7.29909 3.10571 7.29909 2.85444C7.29909 2.60317 7.06799 2.37534 6.81673 2.37889H1.58529Z" fill="#EB6300"/>
</svg>
