<svg width="11" height="13" viewBox="0 0 11 13" fill="none" xmlns="http://www.w3.org/2000/svg">
<path d="M10.5217 2.19625H7.8913V1.71799C7.8913 1.33746 7.74014 0.972515 7.47107 0.703441C7.20199 0.434367 6.83705 0.283203 6.45652 0.283203H4.54348C4.16295 0.283203 3.79801 0.434367 3.52893 0.703441C3.25986 0.972515 3.1087 1.33746 3.1087 1.71799V2.19625H0.478261C0.351418 2.19625 0.229771 2.24663 0.140079 2.33633C0.0503881 2.42602 0 2.54766 0 2.67451C0 2.80135 0.0503881 2.923 0.140079 3.01269C0.229771 3.10238 0.351418 3.15277 0.478261 3.15277H1.19565V11.2832C1.19565 11.6637 1.34682 12.0287 1.61589 12.2977C1.88496 12.5668 2.24991 12.718 2.63043 12.718H8.36957C8.75009 12.718 9.11504 12.5668 9.38411 12.2977C9.65318 12.0287 9.80435 11.6637 9.80435 11.2832V3.15277H10.5217C10.6486 3.15277 10.7702 3.10238 10.8599 3.01269C10.9496 2.923 11 2.80135 11 2.67451C11 2.54766 10.9496 2.42602 10.8599 2.33633C10.7702 2.24663 10.6486 2.19625 10.5217 2.19625ZM4.06522 1.71799C4.06522 1.59114 4.11561 1.4695 4.2053 1.3798C4.29499 1.29011 4.41664 1.23972 4.54348 1.23972H6.45652C6.58336 1.23972 6.70501 1.29011 6.7947 1.3798C6.8844 1.4695 6.93478 1.59114 6.93478 1.71799V2.19625H4.06522V1.71799ZM8.84783 11.2832C8.84783 11.41 8.79744 11.5317 8.70775 11.6214C8.61806 11.7111 8.49641 11.7615 8.36957 11.7615H2.63043C2.50359 11.7615 2.38194 11.7111 2.29225 11.6214C2.20256 11.5317 2.15217 11.41 2.15217 11.2832V3.15277H8.84783V11.2832Z" fill="#EB6300"/>
<path d="M3.58695 10.566C3.71379 10.566 3.83544 10.5156 3.92513 10.4259C4.01482 10.3363 4.06521 10.2146 4.06521 10.0878V4.82689C4.06521 4.70005 4.01482 4.5784 3.92513 4.48871C3.83544 4.39902 3.71379 4.34863 3.58695 4.34863C3.46011 4.34863 3.33846 4.39902 3.24877 4.48871C3.15908 4.5784 3.10869 4.70005 3.10869 4.82689V10.0878C3.10869 10.2146 3.15908 10.3363 3.24877 10.4259C3.33846 10.5156 3.46011 10.566 3.58695 10.566Z" fill="#EB6300"/>
<path d="M7.41312 10.566C7.53996 10.566 7.66161 10.5156 7.7513 10.4259C7.84099 10.3363 7.89138 10.2146 7.89138 10.0878V4.82689C7.89138 4.70005 7.84099 4.5784 7.7513 4.48871C7.66161 4.39902 7.53996 4.34863 7.41312 4.34863C7.28628 4.34863 7.16463 4.39902 7.07494 4.48871C6.98525 4.5784 6.93486 4.70005 6.93486 4.82689V10.0878C6.93486 10.2146 6.98525 10.3363 7.07494 10.4259C7.16463 10.5156 7.28628 10.566 7.41312 10.566Z" fill="#EB6300"/>
<path d="M5.49994 10.566C5.62679 10.566 5.74843 10.5156 5.83813 10.4259C5.92782 10.3363 5.9782 10.2146 5.9782 10.0878V4.82689C5.9782 4.70005 5.92782 4.5784 5.83813 4.48871C5.74843 4.39902 5.62679 4.34863 5.49994 4.34863C5.3731 4.34863 5.25145 4.39902 5.16176 4.48871C5.07207 4.5784 5.02168 4.70005 5.02168 4.82689V10.0878C5.02168 10.2146 5.07207 10.3363 5.16176 10.4259C5.25145 10.5156 5.3731 10.566 5.49994 10.566Z" fill="#EB6300"/>
</svg>
