<svg width="48" height="48" viewBox="0 0 48 48" fill="none" xmlns="http://www.w3.org/2000/svg">
<rect width="48" height="48" rx="24" fill="rgba(255,255,255);"/>
<path opacity="1" fill-rule="evenodd" clip-rule="evenodd" d="M24 12C30.6274 12 36 17.3726 36 24C36 29.9895 31.6118 34.954 25.875 35.8542V27.4688H28.6711L29.2031 24H25.875V21.75C25.875 20.801 26.34 19.875 27.8306 19.875H29.3438V16.9219C29.3438 16.9219 29.1846 16.8947 28.9229 16.8589C28.5118 16.8026 27.8477 16.725 27.1498 16.6976C26.9867 16.6912 26.8216 16.6875 26.6576 16.6875C23.9166 16.6875 22.125 18.3488 22.125 21.3563V24H19.0781V27.4688H22.125V35.8542C16.3882 34.954 12 29.9895 12 24C12 17.3726 17.3726 12 24 12Z" fill="#211D1B"/>
</svg>
