<svg width="26" height="26" viewBox="0 0 26 26" fill="none" xmlns="http://www.w3.org/2000/svg">
<g opacity="1">
<path d="M21.5501 10.35C19.2067 10.35 17.3001 8.42323 17.3001 6.05493C17.3001 4.24009 17.5431 1.2452 17.5534 1.1186C17.5984 0.568156 18.0818 0.158657 18.6315 0.203357C19.182 0.248307 19.5918 0.731005 19.5468 1.28145C19.5444 1.31165 19.3001 4.32204 19.3001 6.05493C19.3001 7.32043 20.3095 8.34998 21.5501 8.34998C22.7908 8.34998 23.8001 7.32043 23.8001 6.05493C23.8001 4.32084 23.5559 1.31165 23.5534 1.28145C23.5085 0.731005 23.9182 0.248307 24.4687 0.203357C25.0185 0.158157 25.5018 0.568106 25.5468 1.1186C25.5571 1.2452 25.8001 4.24009 25.8001 6.05493C25.8001 8.42323 23.8936 10.35 21.5501 10.35ZM22.5501 5.04999V1.2C22.5501 0.647706 22.1024 0.200007 21.5501 0.200007C20.9978 0.200007 20.5501 0.647706 20.5501 1.2V5.04999C20.5501 5.60229 20.9978 6.04998 21.5501 6.04998C22.1024 6.04998 22.5501 5.60229 22.5501 5.04999ZM18.3135 24.6605C18.8164 24.4322 19.039 23.8394 18.8106 23.3365C18.5824 22.8337 17.9896 22.611 17.4867 22.8394C16.1026 23.4678 14.5512 23.8 13.0001 23.8C7.04502 23.8 2.20019 18.9551 2.20019 13C2.20019 7.04488 7.04502 2.20005 13.0001 2.20005C13.4907 2.20005 13.9838 2.2332 14.4658 2.29855C15.0127 2.37265 15.5168 1.98925 15.5911 1.442C15.6653 0.894754 15.2818 0.390907 14.7345 0.316707C14.1638 0.239307 13.5803 0.200057 13.0001 0.200057C9.58116 0.200057 6.36682 1.5315 3.94918 3.94904C1.53159 6.36663 0.200195 9.58102 0.200195 13C0.200195 16.419 1.53164 19.6333 3.94918 22.051C6.36682 24.4686 9.58116 25.8 13.0001 25.8C14.8343 25.7999 16.6717 25.4059 18.3135 24.6605ZM13.2139 20.9476C13.766 20.9345 14.203 20.4763 14.1899 19.9242C14.1769 19.3721 13.7201 18.9357 13.1665 18.9482C13.1189 18.9493 13.0714 18.9498 13.024 18.9498C9.82121 18.9498 7.17817 16.3837 7.10187 13.1652C7.06432 11.583 7.64527 10.0808 8.73761 8.93547C9.83001 7.79013 11.3031 7.13868 12.8855 7.10113C13.3653 7.08998 13.8956 7.14923 14.4202 7.27313C14.9581 7.40018 15.4964 7.06723 15.6234 6.52978C15.7503 5.99228 15.4175 5.45364 14.88 5.32669C14.1918 5.16414 13.4855 5.08604 12.8381 5.10169C10.7217 5.15184 8.75146 6.02318 7.29037 7.55508C5.82927 9.08702 5.05223 11.0962 5.10248 13.2126C5.20458 17.5177 8.73926 20.9498 13.0234 20.9498C13.0865 20.9499 13.1505 20.9491 13.2139 20.9476ZM22.5501 24.7999V13.35C22.5501 12.7977 22.1024 12.35 21.5501 12.35C20.9978 12.35 20.5501 12.7977 20.5501 13.35V24.7999C20.5501 25.3522 20.9978 25.7999 21.5501 25.7999C22.1024 25.7999 22.5501 25.3522 22.5501 24.7999Z" fill="#EB6300"/>
</g>
</svg>
