<svg width="48" height="48" viewBox="0 0 48 48" fill="none" xmlns="http://www.w3.org/2000/svg">
<rect width="48" height="48" rx="24" fill="rgba(255,255,255);"/>
<path opacity="0.2" d="M19.9951 23.9951C19.9951 26.2046 21.7856 27.9951 23.9951 27.9951C26.2046 27.9951 27.9951 26.2046 27.9951 23.9951C27.9951 21.7856 26.2046 19.9951 23.9951 19.9951C21.7856 19.9951 19.9951 21.7856 19.9951 23.9951Z" fill="#211D1B"/>
<path opacity="0.2" fill-rule="evenodd" clip-rule="evenodd" d="M19.0476 12.0714C20.3286 12.0143 20.7381 12 23.9952 12C27.2523 12 27.6619 12.0143 28.9476 12.0667C30.2286 12.1238 31.1 12.3286 31.8619 12.6238C32.6476 12.9333 33.319 13.3429 33.9857 14.0095C34.6524 14.6762 35.0667 15.3429 35.3715 16.1333C35.6667 16.9 35.8714 17.7714 35.9286 19.0476C35.9857 20.3286 36 20.7333 36 23.9952C36 27.2571 35.9857 27.6619 35.9286 28.9429C35.8714 30.2238 35.6667 31.0953 35.3715 31.8572C35.0619 32.6428 34.6524 33.3143 33.9857 33.9809C33.319 34.6476 32.6523 35.0619 31.8619 35.3667C31.0953 35.6619 30.2238 35.8666 28.9476 35.9238C27.6667 35.981 27.2619 35.9952 24 35.9952C20.7381 35.9952 20.3333 35.981 19.0524 35.9238C17.7714 35.8666 16.9 35.6619 16.1381 35.3667C15.3524 35.0571 14.681 34.6476 14.0143 33.9809C13.3476 33.3143 12.9333 32.6476 12.6286 31.8572C12.3333 31.0905 12.1286 30.2191 12.0714 28.9429C12.0143 27.6619 12 27.2523 12 23.9952C12 20.7381 12.0143 20.3286 12.0714 19.0524C12.1286 17.7714 12.3333 16.9 12.6286 16.1381C12.9381 15.3524 13.3476 14.681 14.0143 14.0143C14.681 13.3476 15.3476 12.9333 16.1381 12.6286C16.9 12.3333 17.7714 12.1286 19.0476 12.0714ZM31.8381 17.5905C31.8381 18.3847 31.1943 19.0286 30.4 19.0286C29.6058 19.0286 28.9619 18.3847 28.9619 17.5905C28.9619 16.7962 29.6058 16.1524 30.4 16.1524C31.1943 16.1524 31.8381 16.7962 31.8381 17.5905ZM17.8333 24C17.8333 20.5953 20.5953 17.8381 23.9952 17.8381C27.4 17.8381 30.1571 20.5953 30.1571 24C30.1571 27.4047 27.4 30.1619 23.9952 30.1619C20.5905 30.1619 17.8333 27.4047 17.8333 24Z" fill="#211D1B"/>
</svg>
