<svg width="38" height="23" viewBox="0 0 38 23" fill="none" xmlns="http://www.w3.org/2000/svg">
<path fill-rule="evenodd" clip-rule="evenodd" d="M18.9999 20.0547C16.9875 21.7509 14.3771 22.7749 11.5246 22.7749C5.15974 22.7749 0 17.6766 0 11.3875C0 5.09834 5.15974 0 11.5246 0C14.3771 0 16.9875 1.02399 18.9999 2.72025C21.0124 1.02399 23.6228 0 26.4753 0C32.8401 0 37.9999 5.09834 37.9999 11.3875C37.9999 17.6766 32.8401 22.7749 26.4753 22.7749C23.6228 22.7749 21.0124 21.7509 18.9999 20.0547Z" fill="#ED0006"/>
<path fill-rule="evenodd" clip-rule="evenodd" d="M18.9995 20.0547C21.4775 17.966 23.0488 14.858 23.0488 11.3875C23.0488 7.91688 21.4775 4.80892 18.9995 2.72025C21.0119 1.02399 23.6224 0 26.4749 0C32.8397 0 37.9995 5.09834 37.9995 11.3875C37.9995 17.6766 32.8397 22.7749 26.4749 22.7749C23.6224 22.7749 21.0119 21.7509 18.9995 20.0547Z" fill="#F9A000"/>
<path fill-rule="evenodd" clip-rule="evenodd" d="M18.9995 20.0546C21.4774 17.966 23.0487 14.858 23.0487 11.3874C23.0487 7.91684 21.4774 4.80888 18.9995 2.72021C16.5215 4.80888 14.9502 7.91684 14.9502 11.3874C14.9502 14.858 16.5215 17.966 18.9995 20.0546Z" fill="#FF5E00"/>
</svg>
