<svg width="16" height="28" viewBox="0 0 16 28" fill="none" xmlns="http://www.w3.org/2000/svg">
<path d="M0.695347 23.8344C-0.231782 24.7873 -0.231783 26.3324 0.695347 27.2854C1.62248 28.2384 3.12565 28.2384 4.05278 27.2854L15.1598 15.8687C15.2094 15.8254 15.2578 15.7796 15.3047 15.7315C15.7697 15.2535 16.0014 14.6265 16 14.0001C16.0014 13.3736 15.7697 12.7467 15.3047 12.2687C15.2578 12.2205 15.2094 12.1748 15.1598 12.1315L4.05278 0.71474C3.12565 -0.238246 1.62248 -0.238246 0.695347 0.714738C-0.231782 1.66772 -0.231782 3.21281 0.695347 4.1658L10.2628 14.0001L0.695347 23.8344Z" fill="#757575"/>
</svg>
