<?xml version="1.0" encoding="iso-8859-1"?>
<!-- Generator: Adobe Illustrator 19.0.0, SVG Export Plug-In . SVG Version: 6.00 Build 0)  -->
<svg version="1.1" id="Capa_1" xmlns="http://www.w3.org/2000/svg" xmlns:xlink="http://www.w3.org/1999/xlink" x="0px" y="0px"
	 viewBox="0 0 512 512" style="enable-background:new 0 0 512 512;" xml:space="preserve">
<g fill="#ffffff" stroke="#ffffff" stroke-width="5">
	<path d="M469.289,364.403l-88.644-152.431C378.854,208.895,375.562,207,372,207h-86v-20h129c3.788,0,7.25-2.14,8.944-5.528
		c0,0,19.968-39.936,20-40C447.193,134.974,442.205,127,435,127h-72.284l36.71-53.146c0,0,27.978-27.978,28.069-28.068
		c3.782-3.782,3.761-10.38,0.001-14.143c0,0-28.627-28.628-28.713-28.714c-3.812-3.812-10.346-3.796-14.143,0l-27.699,27.7
		L289.04,67.778c-13.219,5.432-26.709,6.915-37.484,6.929C245.842,48.557,223.675,29,197.258,29
		c-7.708,0-15.285,1.701-22.258,4.914V10c0-5.522-4.477-10-10-10s-10,4.478-10,10v21.578C149.765,29.888,144.288,29,138.742,29
		C108.006,29,83,55.467,83,88c0,12.07,3.441,26.169,9.222,39c0,0-15.185,0-15.222,0c-7.297,0-12.21,7.941-8.944,14.472l20,40
		C89.75,184.86,93.212,187,97,187h129v20h-86c-3.562,0-6.854,1.895-8.645,4.973l-88.644,152.43
		C34.395,377.342,30,392.305,30,407.689V502c0,5.522,4.477,10,10,10h432c5.523,0,10-4.478,10-10v-94.311
		C482,392.305,477.605,377.342,469.289,364.403z M391.71,24.143l14.571,14.571L391.71,53.285l-14.57-14.572L391.71,24.143z
			M252.637,94.998c0.01-0.097,0.026-0.196,0.035-0.292c12.793-0.124,28.744-2.06,44.553-8.672
		c0.322-0.134,63.999-34.952,63.999-34.952l17.521,17.521L338.409,127h-94.621C243.829,126.909,251.563,105.919,252.637,94.998z
			M103.16,88.004c0.182-7.399,1.909-14.734,5.551-21.145c9.38-16.514,31.898-23.523,48.062-12.364
		c3.784,2.612,7.557,6.25,12.138,5.85c3.663-0.321,6.504-3.163,9.466-5.342c8.416-6.194,19.994-7.575,29.841-4.08
		c20.128,7.145,27.612,29.916,23.634,49.526c-1.902,9.374-5.872,18.216-10.541,26.563c-35.524-0.004-71.048-0.008-106.572-0.013
		c-5.219-9.165-9.441-19.044-10.985-29.477C103.29,94.383,103.082,91.187,103.16,88.004z M103.18,167l-10-20h325.64l-10,20H103.18z
			M266,187v20h-20v-20H266z M50,432h66c5.51,0,10-4.49,10-10s-4.49-10-10-10H50v-4.311c0-11.603,3.332-22.885,9.635-32.626
		c0.086-0.133,0.169-0.269,0.249-0.405L145.752,227h220.495l85.868,147.657c0.08,0.137,0.163,0.272,0.249,0.405
		c6.303,9.741,9.635,21.023,9.635,32.627V412h-66c-5.51,0-10,4.49-10,10s4.49,10,10,10h66v20H50V432z M462,492H50v-20h412V492z"/>
	<path d="M156,412c-5.51,0-10,4.49-10,10s4.49,10,10,10s10-4.49,10-10S161.51,412,156,412z"/>
	<path d="M356,412c-5.52,0-10,4.49-10,10s4.48,10,10,10c5.51,0,10-4.49,10-10S361.51,412,356,412z"/>
	<path d="M256,249c-49.626,0-90,40.374-90,90c0,49.626,40.374,90,90,90c49.626,0,90-40.374,90-90C346,289.374,305.626,249,256,249z
			M256,409c-38.598,0-70-31.402-70-70c0-38.598,31.402-70,70-70s70,31.402,70,70C326,377.598,294.598,409,256,409z"/>
	<path d="M289.071,303.929c-3.905-3.904-10.237-3.904-14.143,0l-7.384,7.384C263.989,309.825,260.089,309,256,309
		c-16.542,0-30,13.458-30,30s13.458,30,30,30s30-13.458,30-30c0-5.154-1.307-10.009-3.607-14.25l6.678-6.678
		C292.976,314.167,292.976,307.835,289.071,303.929z M256,349c-5.514,0-10-4.486-10-10c0-5.514,4.486-10,10-10
		c5.514,0,10,4.486,10,10C266,344.514,261.514,349,256,349z"/>
</g>
</svg>
