<svg width="17" height="17" viewBox="0 0 17 17" fill="none" xmlns="http://www.w3.org/2000/svg">
<path d="M8.47178 15.5316H2.11793C1.72822 15.5316 1.41196 15.2153 1.41196 14.8256V2.11796C1.41196 1.72826 1.72826 1.412 2.11793 1.412H8.47178C8.86218 1.412 9.17774 1.09643 9.17774 0.706031C9.17774 0.315629 8.86218 0 8.47178 0H2.11793C0.95024 0 0 0.950273 0 2.11796V14.8256C0 15.9933 0.95024 16.9435 2.11793 16.9435H8.47178C8.86218 16.9435 9.17774 16.628 9.17774 16.2376C9.17774 15.8472 8.86218 15.5316 8.47178 15.5316Z" fill="#EB6300"/>
<path d="M16.7903 7.96917L12.498 3.73328C12.2212 3.45935 11.7736 3.4629 11.4997 3.74035C11.2258 4.01779 11.2286 4.46467 11.5068 4.7386L14.5743 7.76583H6.35452C5.96412 7.76583 5.64856 8.08139 5.64856 8.47179C5.64856 8.8622 5.96412 9.17779 6.35452 9.17779H14.5743L11.5068 12.205C11.2286 12.4789 11.2265 12.9258 11.4997 13.2033C11.6381 13.3431 11.8202 13.4136 12.0024 13.4136C12.1817 13.4136 12.361 13.3459 12.498 13.2103L16.7903 8.97442C16.9245 8.84171 17.0007 8.66095 17.0007 8.47176C17.0007 8.28264 16.9252 8.10261 16.7903 7.96917Z" fill="#EB6300"/>
</svg>
