<svg width="20" height="19" viewBox="0 0 20 19" fill="none" xmlns="http://www.w3.org/2000/svg">
<path d="M5.69977 0.940392L5.69978 0.940391C6.49542 0.82108 7.28983 1.05344 8.02992 1.43792C8.74372 1.80874 9.41521 2.32537 9.99996 2.82042C10.5208 2.37779 11.1143 1.88759 11.746 1.51406C12.4035 1.1253 13.113 0.856344 13.8348 0.905765C15.3422 0.992875 16.7502 1.70828 17.7394 2.8875L17.7402 2.88843C18.6802 4.03705 19.1635 5.51201 19.0933 7.01509C19.0232 8.51804 18.4047 9.93786 17.3621 10.9871C17.3619 10.9872 17.3618 10.9874 17.3617 10.9875L10.8171 17.7502C10.6315 17.9568 10.3715 18.0768 10.0972 18.0805L10.0839 18.0806L10.084 18.0798C9.57231 18.0187 9.10552 17.7514 8.78397 17.3372L3.92724 12.3046L3.92699 12.3044C3.79715 12.1689 3.72467 11.9864 3.72467 11.7967C3.72467 11.6072 3.79714 11.4246 3.92704 11.2892L3.92745 11.2888C4.05826 11.154 4.23613 11.0776 4.42219 11.0776C4.60842 11.0776 4.78612 11.1541 4.91703 11.2887L4.91758 11.2893L9.75408 16.3443L9.75622 16.3465L9.75619 16.3465C9.82717 16.4255 9.90498 16.4974 9.98853 16.5614L16.3728 10.0012L16.3737 10.0004C17.1634 9.20852 17.635 8.13558 17.6929 6.99697C17.7506 5.85874 17.3903 4.74053 16.6854 3.8671C15.9447 2.98913 14.8982 2.453 13.777 2.37554L5.69977 0.940392ZM5.69977 0.940392C4.13753 1.17472 2.74403 2.08031 1.86076 3.43347L1.86075 3.43348M5.69977 0.940392L1.86075 3.43348M1.86075 3.43348C0.977979 4.78613 0.686531 6.46094 1.05726 8.04694C1.09946 8.2495 1.22442 8.42443 1.40143 8.52599L1.40149 8.52602M1.86075 3.43348L1.40149 8.52602M1.40149 8.52602C1.57917 8.62782 1.79116 8.645 1.98221 8.57293L1.98254 8.5728M1.40149 8.52602L1.98254 8.5728M1.98254 8.5728C2.1428 8.51171 2.2752 8.39264 2.35575 8.23889C2.43624 8.08526 2.46001 7.90676 2.42272 7.73664L2.42273 7.73664M1.98254 8.5728L2.42273 7.73664M2.42273 7.73664L2.42243 7.73536M2.42273 7.73664L2.42243 7.73536M2.42243 7.73536C2.13868 6.51759 2.3725 5.23242 3.06389 4.20578L2.42243 7.73536ZM9.33238 4.12612L9.33161 4.12542C8.87165 3.69789 8.34066 3.22106 7.77405 2.86905C7.20664 2.51655 6.61612 2.29726 6.03511 2.36689C4.83731 2.51047 3.75533 3.1794 3.0639 4.20577L9.33238 4.12612ZM9.33238 4.12612C9.52135 4.29814 9.76491 4.39367 10.0177 4.39367M9.33238 4.12612L10.0177 4.39367M10.0177 4.39367C10.2706 4.39367 10.5141 4.29818 10.7031 4.1262M10.0177 4.39367L10.7031 4.1262M10.7031 4.1262C10.7315 4.10035 10.7602 4.07424 10.7892 4.0479C11.2028 3.67168 11.6661 3.25018 12.1591 2.92253C12.6872 2.57144 13.235 2.33818 13.7769 2.37554L10.7031 4.1262Z" fill="#EB6300" stroke="#EB6300" stroke-width="0.2"/>
</svg>
