<svg width="17" height="21" viewBox="0 0 17 21" fill="none" xmlns="http://www.w3.org/2000/svg">
<path d="M11.0574 8.19261C10.8015 7.93667 10.3854 7.93536 10.1281 8.1913L7.96777 10.353L7.11989 9.5038C6.86395 9.24786 6.44789 9.24786 6.19195 9.5038C5.93602 9.75974 5.93602 10.1758 6.19195 10.4317L7.50445 11.7442C7.63177 11.8729 7.79977 11.9372 7.96777 11.9372C8.13577 11.9372 8.30377 11.8729 8.43239 11.7455L11.0574 9.12055C11.3133 8.86461 11.3133 8.44855 11.0574 8.19261Z" fill="#EB6300"/>
<path d="M11.0574 12.3181C10.8015 12.0622 10.3854 12.0608 10.1281 12.3168L7.96777 14.4785L7.11989 13.6306C6.86395 13.3747 6.44789 13.3747 6.19195 13.6306C5.93602 13.8865 5.93602 14.3026 6.19195 14.5585L7.50445 15.871C7.63177 15.9983 7.79977 16.0627 7.96777 16.0627C8.13577 16.0627 8.30377 15.9983 8.43239 15.871L11.0574 13.246C11.3133 12.9901 11.3133 12.574 11.0574 12.3181Z" fill="#EB6300"/>
<path d="M15.0625 2.625H12.4375V1.96875C12.4375 1.6065 12.1435 1.3125 11.7812 1.3125H10.3572C10.0855 0.548625 9.35575 0 8.5 0C7.64425 0 6.9145 0.548625 6.64281 1.3125H5.21875C4.8565 1.3125 4.5625 1.6065 4.5625 1.96875V2.625H1.9375C1.21431 2.625 0.625 3.21431 0.625 3.9375V19.6875C0.625 20.4107 1.21431 21 1.9375 21H15.0625C15.7857 21 16.375 20.4107 16.375 19.6875V3.9375C16.375 3.21431 15.7857 2.625 15.0625 2.625ZM5.875 2.625H7.1875C7.54975 2.625 7.84375 2.331 7.84375 1.96875C7.84375 1.6065 8.13775 1.3125 8.5 1.3125C8.86225 1.3125 9.15625 1.6065 9.15625 1.96875C9.15625 2.331 9.45025 2.625 9.8125 2.625H11.125V3.9375H5.875V2.625ZM15.0625 19.6875H1.9375V3.9375H4.5625V4.59375C4.5625 4.956 4.8565 5.25 5.21875 5.25H11.7812C12.1435 5.25 12.4375 4.956 12.4375 4.59375V3.9375H15.0625V19.6875Z" fill="#EB6300"/>
</svg>
