<svg width="21" height="21" viewBox="0 0 21 21" fill="none" xmlns="http://www.w3.org/2000/svg">
<path d="M10.3089 8.0681C10.053 7.81216 9.63692 7.81085 9.37967 8.06679L7.21929 10.2285L6.37142 9.37929C6.11548 9.12335 5.69942 9.12335 5.44348 9.37929C5.18754 9.63522 5.18754 10.0513 5.44348 10.3072L6.75598 11.6197C6.88329 11.7483 7.05129 11.8127 7.21929 11.8127C7.38729 11.8127 7.55529 11.7483 7.68392 11.621L10.3089 8.99604C10.5649 8.7401 10.5649 8.32404 10.3089 8.0681Z" fill="#EB6300"/>
<path d="M10.3089 13.3181C10.053 13.0622 9.63692 13.0608 9.37967 13.3168L7.21929 15.4785L6.37142 14.6306C6.11548 14.3747 5.69942 14.3747 5.44348 14.6306C5.18754 14.8865 5.18754 15.3026 5.44348 15.5585L6.75598 16.871C6.88329 16.9983 7.05129 17.0627 7.21929 17.0627C7.38729 17.0627 7.55529 16.9983 7.68392 16.871L10.3089 14.246C10.5649 13.9901 10.5649 13.574 10.3089 13.3181Z" fill="#EB6300"/>
<path d="M15.0938 9.1875H12.4688C12.1065 9.1875 11.8125 9.4815 11.8125 9.84375C11.8125 10.206 12.1065 10.5 12.4688 10.5H15.0938C15.456 10.5 15.75 10.206 15.75 9.84375C15.75 9.4815 15.456 9.1875 15.0938 9.1875Z" fill="#EB6300"/>
<path d="M15.0938 14.4375H12.4688C12.1065 14.4375 11.8125 14.7315 11.8125 15.0938C11.8125 15.456 12.1065 15.75 12.4688 15.75H15.0938C15.456 15.75 15.75 15.456 15.75 15.0938C15.75 14.7315 15.456 14.4375 15.0938 14.4375Z" fill="#EB6300"/>
<path d="M17.0625 2.625H14.4375V1.96875C14.4375 1.6065 14.1435 1.3125 13.7812 1.3125H12.3572C12.0855 0.548625 11.3558 0 10.5 0C9.64425 0 8.9145 0.548625 8.64281 1.3125H7.21875C6.8565 1.3125 6.5625 1.6065 6.5625 1.96875V2.625H3.9375C3.21431 2.625 2.625 3.21431 2.625 3.9375V19.6875C2.625 20.4107 3.21431 21 3.9375 21H17.0625C17.7857 21 18.375 20.4107 18.375 19.6875V3.9375C18.375 3.21431 17.7857 2.625 17.0625 2.625ZM7.875 2.625H9.1875C9.54975 2.625 9.84375 2.331 9.84375 1.96875C9.84375 1.6065 10.1378 1.3125 10.5 1.3125C10.8623 1.3125 11.1562 1.6065 11.1562 1.96875C11.1562 2.331 11.4502 2.625 11.8125 2.625H13.125V3.9375H7.875V2.625ZM17.0625 19.6875H3.9375V3.9375H6.5625V4.59375C6.5625 4.956 6.8565 5.25 7.21875 5.25H13.7812C14.1435 5.25 14.4375 4.956 14.4375 4.59375V3.9375H17.0625V19.6875Z" fill="#EB6300"/>
</svg>
