<svg width="16" height="18" viewBox="0 0 16 18" fill="none" xmlns="http://www.w3.org/2000/svg">
<path d="M7.56014 8.15702C9.84808 8.15702 11.6387 6.36646 11.6387 4.07851C11.6387 1.79057 9.84808 0 7.56014 0C5.27219 0 3.48163 1.79057 3.48163 4.07851C3.48163 6.36646 5.27219 8.2565 7.56014 8.15702ZM7.56014 1.49214C8.9528 1.49214 10.1465 2.68585 10.1465 4.07851C10.1465 5.47117 8.9528 6.66489 7.56014 6.66489C6.16748 6.66489 4.97377 5.47117 4.97377 4.07851C4.97377 2.68585 6.068 1.49214 7.56014 1.49214Z" fill="#EB6300"/>
<path d="M7.56017 8.95288C3.38218 8.95288 0 12.3351 0 16.513C0 16.911 0.298428 17.3089 0.795807 17.3089C1.19371 17.3089 1.59161 17.0104 1.59161 16.513C1.69109 13.2303 4.57589 10.644 7.8586 10.7434C11.0418 10.8429 13.5287 13.4293 13.6282 16.513C13.6282 16.911 13.9266 17.3089 14.424 17.3089C14.9214 17.3089 15.2198 17.0104 15.2198 16.513C15.0209 12.3351 11.7382 8.95288 7.56017 8.95288Z" fill="#EB6300"/>
</svg>
