<svg width="76" height="119" viewBox="0 0 76 119" fill="none" xmlns="http://www.w3.org/2000/svg">
<path fill-rule="evenodd" clip-rule="evenodd" d="M111.794 -49.4804C131.703 -46.0371 153.769 -65.4249 170.715 -54.4319C187.484 -43.5532 185.816 -18.7082 189.486 0.92084C193.02 19.8178 201.851 40.8869 191.577 57.1395C181.384 73.2631 156.258 68.7328 140.148 78.9672C123.043 89.8331 115.857 119.112 95.6076 118.105C75.6036 117.11 71.6425 87.4935 56.1672 74.7922C39.6939 61.2717 11.6299 61.6041 3.02801 42.1204C-5.67444 22.409 6.50601 0.166768 14.3655 -19.8903C22.5346 -40.7372 27.6574 -68.9506 49.1046 -75.4644C71.2898 -82.2023 88.9429 -53.4325 111.794 -49.4804Z" fill="#EB6300"/>
</svg>
