<svg width="58" height="55" viewBox="0 0 58 55" fill="none" xmlns="http://www.w3.org/2000/svg">
<path d="M0.191125 47.412C-0.133608 47.8587 -0.0347098 48.4841 0.41202 48.8089L7.6919 54.1007C8.13863 54.4254 8.76402 54.3265 9.08875 53.8798C9.41348 53.4331 9.31459 52.8077 8.86786 52.4829L2.39686 47.7791L7.1007 41.3081C7.42543 40.8614 7.32653 40.236 6.8798 39.9113C6.43308 39.5865 5.80768 39.6854 5.48295 40.1321L0.191125 47.412ZM55.6599 1.10503C56.6787 10.7524 55.3504 18.1268 52.4599 23.8387C49.5709 29.5477 45.0774 33.6828 39.6153 36.7789C28.6236 43.0093 13.8954 44.9483 0.843804 47.0123L1.1562 48.9877C14.0515 46.9485 29.2188 44.9709 40.6016 38.5188C46.3267 35.2736 51.1403 30.8759 54.2445 24.7417C57.3472 18.6103 58.6982 10.8309 57.6488 0.894972L55.6599 1.10503Z" fill="#EB6300"/>
</svg>
