<svg width="77" height="71" viewBox="0 0 77 71" fill="none" xmlns="http://www.w3.org/2000/svg">
<path d="M0.19039 63.413C-0.133784 63.8602 -0.034103 64.4854 0.413032 64.8096L7.69953 70.0923C8.14666 70.4165 8.77193 70.3168 9.0961 69.8697C9.42028 69.4225 9.3206 68.7973 8.87346 68.4731L2.39658 63.7774L7.09232 57.3005C7.41649 56.8533 7.31681 56.2281 6.86968 55.9039C6.42254 55.5797 5.79727 55.6794 5.4731 56.1265L0.19039 63.413ZM74.0054 1.10419C75.3655 14.0862 73.5952 24.0414 69.7157 31.7701C65.8377 39.4955 59.8093 45.0822 52.5039 49.2568C37.8252 57.6446 18.171 60.25 0.842568 63.0125L1.15743 64.9875C18.329 62.25 38.4248 59.6054 53.4961 50.9932C61.0657 46.6678 67.4123 40.817 71.5031 32.6674C75.5923 24.5211 77.3845 14.1638 75.9946 0.895808L74.0054 1.10419Z" fill="#EB6300"/>
</svg>
