<svg width="51" height="71" viewBox="0 0 51 71" fill="none" xmlns="http://www.w3.org/2000/svg">
<path d="M0.19039 63.413C-0.133784 63.8602 -0.034103 64.4854 0.413032 64.8096L7.69953 70.0923C8.14666 70.4165 8.77193 70.3168 9.0961 69.8697C9.42028 69.4225 9.3206 68.7973 8.87346 68.4731L2.39658 63.7774L7.09232 57.3005C7.41649 56.8533 7.31681 56.2281 6.86968 55.9039C6.42254 55.5797 5.79727 55.6794 5.4731 56.1265L0.19039 63.413ZM46.0406 1.28217C50.9615 18.0132 48.1139 32.0453 39.8991 42.5723C31.6597 53.131 17.9203 60.2899 0.842568 63.0125L1.15743 64.9875C18.5797 62.2101 32.8403 54.869 41.4759 43.8027C50.1361 32.7047 53.0385 17.9868 47.9594 0.717834L46.0406 1.28217Z" fill="#EB6300"/>
</svg>
