<svg width="26" height="26" viewBox="0 0 26 26" fill="green" xmlns="http://www.w3.org/2000/svg">
<g opacity="1">
<path d="M25.6195 16.2181C25.7557 16.7533 25.4322 17.2976 24.897 17.4338L21.7722 18.2288L22.5703 21.4063C22.7048 21.942 22.3797 22.4853 21.844 22.6198C21.3227 22.7552 20.763 22.4334 20.6305 21.8936L19.6907 18.1519L14.0504 14.79V21.3857L16.7575 24.0929C17.148 24.4834 17.148 25.1166 16.7575 25.5071C16.367 25.8976 15.7338 25.8976 15.3433 25.5071L13.0504 23.2142L10.7575 25.5071C10.367 25.8976 9.73377 25.8976 9.34327 25.5071C8.95277 25.1165 8.95277 24.4833 9.34327 24.0928L12.0504 21.3857V14.7304L6.31002 18.1519L5.37022 21.8936C5.25622 22.3474 4.84867 22.6502 4.40107 22.6502C4.32042 22.6502 4.23852 22.6404 4.15672 22.6199C3.62107 22.4854 3.29592 21.942 3.43047 21.4064L4.22857 18.2289L1.10377 17.4338C0.568521 17.2976 0.245021 16.7533 0.381221 16.2181C0.517421 15.6829 1.06142 15.3593 1.59692 15.4956L5.28572 16.4342L11.0473 13L5.28582 9.56581L1.59702 10.5044C1.51432 10.5255 1.43137 10.5356 1.34972 10.5356C0.903271 10.5356 0.496521 10.2344 0.381321 9.78191C0.245121 9.24667 0.568621 8.70241 1.10387 8.56621L4.22867 7.77111L3.43057 4.59361C3.29607 4.05796 3.62117 3.51466 4.15682 3.38011C4.69242 3.24561 5.23572 3.57076 5.37032 4.10636L6.31012 7.84796L12.0504 11.2695V4.61421L9.34322 1.90706C8.95272 1.51651 8.95272 0.883364 9.34322 0.492864C9.73377 0.102314 10.367 0.102314 10.7575 0.492864L13.0504 2.78576L15.3432 0.492864C15.7338 0.102314 16.367 0.102314 16.7575 0.492864C17.148 0.883414 17.148 1.51656 16.7575 1.90706L14.0504 4.61421V11.21L19.6907 7.84801L20.6305 4.10641C20.7651 3.57076 21.3084 3.24546 21.844 3.38016C22.3797 3.51471 22.7048 4.05801 22.5703 4.59366L21.7722 7.77116L24.897 8.56626C26.0339 8.88596 25.8171 10.5104 24.6511 10.5356C24.5695 10.5356 24.4865 10.5256 24.4038 10.5045L20.715 9.56586L14.9535 13L20.715 16.4341L24.4038 15.4955C24.9391 15.3594 25.4834 15.6829 25.6195 16.2181ZM16.6495 7.60011C16.4707 7.60011 16.2898 7.55221 16.1263 7.45161C15.656 7.16216 15.5093 6.54621 15.7987 6.07586L16.5987 4.77586C16.8882 4.30541 17.504 4.15886 17.9745 4.44831C18.4448 4.73776 18.5915 5.35371 18.3021 5.82406L17.5021 7.12406C17.3132 7.43101 16.9852 7.60011 16.6495 7.60011ZM9.87452 7.45161C10.3448 7.16216 10.4915 6.54621 10.2021 6.07586L9.40207 4.77586C9.11252 4.30546 8.49667 4.15886 8.02627 4.44831C7.55597 4.73776 7.40927 5.35371 7.69872 5.82406L8.49872 7.12406C8.68762 7.43101 9.01557 7.60011 9.35132 7.60011C9.53007 7.60011 9.71107 7.55216 9.87452 7.45161ZM17.9745 21.5516C18.4448 21.2622 18.5915 20.6462 18.3021 20.1758L17.5021 18.8758C17.2126 18.4055 16.5967 18.2589 16.1263 18.5483C15.656 18.8377 15.5093 19.4537 15.7987 19.9241L16.5987 21.2241C16.7876 21.531 17.1156 21.7001 17.4513 21.7001C17.6301 21.7001 17.8111 21.6522 17.9745 21.5516ZM9.40202 21.2241L10.202 19.9241C10.4915 19.4537 10.3448 18.8377 9.87447 18.5483C9.40407 18.2588 8.78812 18.4055 8.49867 18.8758L7.69867 20.1758C7.40922 20.6462 7.55592 21.2622 8.02622 21.5516C8.18972 21.6522 8.37062 21.7001 8.54942 21.7001C8.88522 21.7001 9.21317 21.531 9.40202 21.2241ZM22.6504 13C22.6504 12.4477 22.2027 12 21.6504 12H20.1504C18.8236 12.0528 18.8246 13.9476 20.1504 14H21.6504C22.2027 14 22.6504 13.5523 22.6504 13ZM6.85037 13C6.85037 12.4477 6.40267 12 5.85037 12H4.35037C3.02357 12.0528 3.02457 13.9476 4.35037 14H5.85037C6.40267 14 6.85037 13.5523 6.85037 13Z" fill="#EB6300"/>
</g>
</svg>
