<svg width="26" height="26" viewBox="0 0 26 26" fill="none" xmlns="http://www.w3.org/2000/svg">
<path d="M20.5846 3.34307C13.8503 -3.38434 2.30425 1.40447 2.30005 10.9232C2.45301 14.9909 6.36433 20.1617 9.41436 24.1308C11.2467 26.4027 14.9462 26.3461 16.7107 24.0176C18.9722 21.2072 23.8557 14.4476 23.7083 10.9231C23.7083 8.05816 22.5989 5.36616 20.5846 3.34307ZM15.1389 22.7795C14.6231 23.4345 13.8491 23.8101 13.0156 23.8101C12.1833 23.8102 11.4108 23.4354 10.896 22.7819C10.8955 22.7812 10.895 22.7806 10.8946 22.78C6.76168 17.5171 4.30078 13.1344 4.30078 10.9231C4.30078 6.11425 8.20509 2.20168 13.0042 2.20168C17.7964 2.20168 21.7075 6.11425 21.7075 10.9231C21.7075 13.1587 19.3134 17.4802 15.1389 22.7795ZM14.5047 11.6554H13.0542C12.5017 11.6554 12.0538 11.2075 12.0538 10.655V8.75423C12.1066 7.42691 14.0022 7.42791 14.0546 8.75423V9.65458H14.5047C15.8321 9.7074 15.8311 11.603 14.5047 11.6554ZM19.0565 10.655C19.0565 7.34528 16.3639 4.65263 13.0542 4.65263C5.09088 4.98241 5.09399 16.329 13.0542 16.6573C16.3639 16.6573 19.0565 13.9647 19.0565 10.655ZM17.0557 10.655C17.0557 12.8614 15.2606 14.6565 13.0542 14.6565C7.74532 14.4367 7.74737 6.87225 13.0542 6.65341C15.2606 6.65341 17.0557 8.44851 17.0557 10.655Z" fill="#fff"/>
</svg>
