<svg width="42" height="14" viewBox="0 0 42 14" fill="none" xmlns="http://www.w3.org/2000/svg">
<path fill-rule="evenodd" clip-rule="evenodd" d="M10.5004 13.6909H6.86555L4.13989 2.98648C4.01052 2.49407 3.73582 2.05876 3.33176 1.85359C2.32337 1.338 1.21219 0.927665 0 0.720713V0.308594H5.85539C6.66352 0.308594 7.26961 0.927665 7.37063 1.64664L8.78486 9.36808L12.4179 0.308594H15.9517L10.5004 13.6909ZM17.9716 13.6909H14.5388L17.3655 0.308594H20.7983L17.9716 13.6909ZM25.2393 4.01593C25.3403 3.29517 25.9464 2.88305 26.6535 2.88305C27.7647 2.77957 28.9751 2.98653 29.9853 3.50034L30.5914 0.619071C29.5812 0.206952 28.47 0 27.4616 0C24.1299 0 21.7055 1.85364 21.7055 4.42627C21.7055 6.38339 23.4228 7.41101 24.635 8.03008C25.9464 8.64737 26.4515 9.05949 26.3505 9.67677C26.3505 10.6027 25.3403 11.0148 24.3319 11.0148C23.1197 11.0148 21.9075 10.7062 20.7981 10.1906L20.192 13.0736C21.4042 13.5874 22.7156 13.7944 23.9278 13.7944C27.6637 13.8961 29.9853 12.0442 29.9853 9.26465C29.9853 5.76432 25.2393 5.55915 25.2393 4.01593ZM42.0002 13.6909L39.2746 0.308594H36.3469C35.7408 0.308594 35.1347 0.720713 34.9326 1.338L29.8854 13.6909H33.4192L34.1245 11.7355H38.4664L38.8705 13.6909H42.0002ZM36.851 3.91309L37.8594 8.95664H35.0327L36.851 3.91309Z" fill="#fff"/>
</svg>
